<svg xmlns="http://www.w3.org/2000/svg" viewBox="0 0 512 512">
  <defs>
    <linearGradient id="bg" x1="0%" y1="0%" x2="100%" y2="100%">
      <stop offset="0%" style="stop-color:#3b82f6"/>
      <stop offset="100%" style="stop-color:#1d4ed8"/>
    </linearGradient>
  </defs>
  
  <!-- Background -->
  <rect width="512" height="512" rx="96" fill="url(#bg)"/>
  
  <!-- Stylized "FG" letters representing Fast Grava -->
  <g fill="white">
    <!-- F letter -->
    <path d="M120 140h140v40h-95v60h80v40h-80v120h-45V140z"/>
    
    <!-- G letter -->
    <path d="M292 140h100c30 0 50 20 50 50v160c0 30-20 50-50 50h-100c-30 0-50-20-50-50V190c0-30 20-50 50-50zm5 40c-8 0-10 5-10 10v160c0 5 2 10 10 10h90c8 0 10-5 10-10V260h-55v-40h100v130c0 30-20 50-50 50h-100c-30 0-50-20-50-50V190c0-30 20-50 50-50h100c30 0 50 20 50 50v20h-45v-20c0-5-2-10-10-10h-90z"/>
  </g>
  
  <!-- Laser beam effect -->
  <g stroke="white" stroke-width="3" opacity="0.8">
    <line x1="420" y1="100" x2="480" y2="60"/>
    <line x1="440" y1="120" x2="490" y2="90"/>
    <line x1="460" y1="140" x2="500" y2="120"/>
  </g>
</svg>
